# xmcd
# Track frame offsets:
# 183
# 15860
# 31320
# 53920
# 70563
# 90645
# 107938
# 118748
# 134958
# 144018
#
# Disc length: 2086 seconds
# Revision: 0
# Processed by: cddbd v1.4PL0 Copyright (c) Steve Scherf et al.
# Submitted via: VisiTrax 2.9.5.180 - For more info visit www.synapsa.com
#
DISCID=8208240a
DTITLE=Joan Baez - Joe Hill and more Country Greats
DYEAR=1992
DGENRE=
TTITLE0=Joe Hill
TTITLE1=Long black veil
TTITLE2=A song for David
TTITLE3=Sweet sir Calahad
TTITLE4=Ghetto
TTITLE5=No expectations
TTITLE6=Carry it on
TTITLE7=One day at a time
TTITLE8=Jolie Blond
TTITLE9=Sunny south
EXTD=
EXTT0=
EXTT1=
EXTT2=
EXTT3=
EXTT4=
EXTT5=
EXTT6=
EXTT7=
EXTT8=
EXTT9=
PLAYORDER=
